Coordinates
version=1
nRows=10
nColumns=40
inDegrees=yes

Units are S.I. units (second, meters, Newtons, ...)
If the header above contains a line with 'inDegrees', this indicates whether rotational values are in degrees (yes) or radians (no).

endheader
time	pelvis_tilt	pelvis_list	pelvis_rotation	pelvis_tx	pelvis_ty	pelvis_tz	hip_flexion_r	hip_adduction_r	hip_rotation_r	knee_angle_r	knee_angle_r_beta	ankle_angle_r	subtalar_angle_r	mtp_angle_r	hip_flexion_l	hip_adduction_l	hip_rotation_l	knee_angle_l	knee_angle_l_beta	ankle_angle_l	subtalar_angle_l	mtp_angle_l	lumbar_extension	lumbar_bending	lumbar_rotation	arm_flex_r	arm_add_r	arm_rot_r	elbow_flex_r	pro_sup_r	wrist_flex_r	wrist_dev_r	arm_flex_l	arm_add_l	arm_rot_l	elbow_flex_l	pro_sup_l	wrist_flex_l	wrist_dev_l
      2.26500000	     -1.10027234	     -3.72501462	      0.35192993	      0.16301854	      0.47474698	     -1.22590127	     87.63515489	    -48.92911723	     16.53174276	    117.07090451	      2.04327274	     30.49751088	     22.12724963	      0.00000000	     98.27554026	    -47.12460153	     25.84812916	    120.24579476	      2.09868503	     31.67389689	     23.83726319	      0.00000000	    -38.71992816	      4.36011434	     -4.89114929	     44.99992434	    -14.99999999	     44.99992434	     75.00017585	     45.00000026	      0.00000000	      0.00000000	     44.99992434	    -14.99999999	     44.99992434	     75.00017585	     45.00000026	      0.00000000	      0.00000000
      2.27000000	     -1.53917479	     -3.69040548	      0.32991707	      0.16258642	      0.47767962	     -1.22566019	     87.54492812	    -48.88577364	     15.90348532	    116.63289269	      2.03562799	     30.24448631	     21.65602707	      0.00000000	     98.07614369	    -47.03749795	     25.19715045	    119.75953933	      2.09019827	     31.42957635	     23.27417539	      0.00000000	    -38.12114658	      4.35702667	     -4.89871876	     44.99992434	    -14.99999999	     44.99992434	     75.00017585	     45.00000026	      0.00000000	      0.00000000	     44.99992434	    -14.99999999	     44.99992434	     75.00017585	     45.00000026	      0.00000000	      0.00000000
      2.27500000	     -2.00587265	     -3.66750762	      0.27647451	      0.16234877	      0.48050400	     -1.22539664	     87.47162418	    -48.81330786	     15.30962338	    116.17907385	      2.02770736	     30.18782969	     21.53754084	      0.00000000	     97.90382615	    -47.00664481	     24.61918473	    119.27759706	      2.08178679	     31.33794529	     23.14440182	      0.00000000	    -37.51510839	      4.30115769	     -4.88304602	     44.99992434	    -14.99999999	     44.99992434	     75.00017585	     45.00000026	      0.00000000	      0.00000000	     44.99992434	    -14.99999999	     44.99992434	     75.00017585	     45.00000026	      0.00000000	      0.00000000
      2.28000000	     -2.42449938	     -3.63690999	      0.27023236	      0.16198707	      0.48358066	     -1.22517768	     87.33004835	    -48.78457778	     14.65973027	    115.72029462	      2.01970015	     29.93547191	     20.94824131	      0.00000000	     97.65530361	    -46.90940880	     23.94984901	    118.77383855	      2.07299455	     31.12725026	     22.44482746	      0.00000000	    -36.93252273	      4.30544475	     -4.89589231	     44.99992434	    -14.99999999	     44.99992434	     75.00017585	     45.00000026	      0.00000000	      0.00000000	     44.99992434	    -14.99999999	     44.99992434	     75.00017585	     45.00000026	      0.00000000	      0.00000000
      2.28500000	     -2.92589186	     -3.60649530	      0.20035600	      0.16179856	      0.48639257	     -1.22479598	     87.30453449	    -48.70862698	     14.05407317	    115.28389777	      2.01208359	     29.92172052	     20.91145294	      0.00000000	     97.52391996	    -46.89820857	     23.38015165	    118.26040054	      2.06403336	     31.06363836	     22.40996151	      0.00000000	    -36.42572743	      4.25924118	     -4.88453638	     44.99992434	    -14.99999999	     44.99992434	     75.00017585	     45.00000026	      0.00000000	      0.00000000	     44.99992434	    -14.99999999	     44.99992434	     75.00017585	     45.00000026	      0.00000000	      0.00000000
      2.29000000	     -3.27785407	     -3.58061747	      0.20635202	      0.16143641	      0.48976214	     -1.22463310	     87.01383208	    -48.66164853	     13.37993826	    114.77240249	      2.00315631	     29.62996741	     20.29146673	      0.00000000	     97.15781542	    -46.78472536	     22.69720203	    117.73228026	      2.05481593	     30.81810011	     21.68073637	      0.00000000	    -35.71691607	      4.24090601	     -4.89084801	     44.99992434	    -14.99999999	     44.99992434	     75.00017585	     45.00000026	      0.00000000	      0.00000000	     44.99992434	    -14.99999999	     44.99992434	     75.00017585	     45.00000026	      0.00000000	      0.00000000
      2.29500000	     -3.71240853	     -3.54881229	      0.15283718	      0.16124765	      0.49284415	     -1.22429781	     86.85260000	    -48.57453639	     12.75199318	    114.29114764	      1.99475683	     29.52076243	     20.12595501	      0.00000000	     96.91650784	    -46.74822512	     22.09820170	    117.20768394	      2.04565999	     30.67277899	     21.49560204	      0.00000000	    -35.02563004	      4.17901048	     -4.87519535	     44.99992434	    -14.99999999	     44.99992434	     75.00017585	     45.00000026	      0.00000000	      0.00000000	     44.99992434	    -14.99999999	     44.99992434	     75.00017585	     45.00000026	      0.00000000	      0.00000000
      2.30000000	     -4.18944051	     -3.52215634	      0.09832165	      0.16106750	      0.49593388	     -1.22396840	     86.73031755	    -48.47019287	     12.12627921	    113.78451817	      1.98591448	     29.43767380	     19.98902433	      0.00000000	     96.70430839	    -46.71146594	     21.49333084	    116.65268902	      2.03597350	     30.55244672	     21.34466386	      0.00000000	    -34.37853630	      4.12084046	     -4.86073092	     44.99992434	    -14.99999999	     44.99992434	     75.00017585	     45.00000026	      0.00000000	      0.00000000	     44.99992434	    -14.99999999	     44.99992434	     75.00017585	     45.00000026	      0.00000000	      0.00000000
      2.30500000	     -4.66448551	     -3.48906411	      0.03739515	      0.16098504	      0.49894328	     -1.22355879	     86.62854479	    -48.38983311	     11.50923813	    113.32277554	      1.97785555	     29.36010140	     19.86357936	      0.00000000	     96.50917127	    -46.69207674	     20.90554741	    116.10401952	      2.02639742	     30.44116480	     21.20203058	      0.00000000	    -33.78265850	      4.07266674	     -4.85061248	     44.99992434	    -14.99999999	     44.99992434	     75.00017585	     45.00000026	      0.00000000	      0.00000000	     44.99992434	    -14.99999999	     44.99992434	     75.00017585	     45.00000026	      0.00000000	      0.00000000
      2.31000000	     -5.10183999	     -3.45493056	     -0.01748525	      0.16078757	      0.50216304	     -1.22322353	     86.44173799	    -48.27076520	     10.87722434	    112.80196335	      1.96876566	     29.22706197	     19.66713604	      0.00000000	     96.24208325	    -46.64306835	     20.28663335	    115.54551823	      2.01664973	     30.28282174	     20.98043305	      0.00000000	    -33.04089319	      4.00628234	     -4.83392786	     44.99992434	    -14.99999999	     44.99992434	     75.00017585	     45.00000026	      0.00000000	      0.00000000	     44.99992434	    -14.99999999	     44.99992434	     75.00017585	     45.00000026	      0.00000000	      0.00000000
